<mxfile host="app.diagrams.net" modified="2024-05-06T13:10:45.010Z" agent="Mozilla/5.0 (X11; Linux x86_64) AppleWebKit/537.36 (KHTML, like Gecko) Chrome/124.0.0.0 Safari/537.36" version="24.3.1" etag="Va3CUcDTLRLkoTlmqkYW" type="github">
  <diagram name="Page-1" id="m_Y108sSP7Lhg1sr7l5O">
    <mxGraphModel>
      <root>
        <mxCell id="0" />
        <mxCell id="1" parent="0" />
      </root>
    </mxGraphModel>
  </diagram>
</mxfile>
